<svg xmlns="http://www.w3.org/2000/svg" width="137.431" height="137.43" viewBox="0 0 137.431 137.43">
  <g id="Group_38" data-name="Group 38" transform="translate(-162.927 -96.677)">
    <path id="Path_44" data-name="Path 44" d="M172.393,115.612V122.2l-1.794.448a10.114,10.114,0,0,0-7.66,9.548H252.93a10.113,10.113,0,0,0-7.658-9.55l-1.794-.446v-6.589Z" transform="translate(0.012 18.976)" fill="#0061ae"/>
    <path id="Path_45" data-name="Path 45" d="M244.891,129.743a21.317,21.317,0,0,0-29.962,29.96Z" transform="translate(47.448 28.473)" fill="#0061ae"/>
    <path id="Path_46" data-name="Path 46" d="M241.119,176.024h11.849v-49.76H162.927V187.87h62.305A16.609,16.609,0,0,1,241.119,176.024Zm-59.236-18.956a26.064,26.064,0,1,1,26.064,26.064A26.094,26.094,0,0,1,181.883,157.067Z" transform="translate(0 29.651)" fill="#0061ae"/>
    <path id="Path_47" data-name="Path 47" d="M252.968,96.677h-4.739v28.434H243.49V96.677h-4.739v28.434h-4.739V96.677h-4.739v28.434h-4.739V96.677h-4.739v28.434h-4.739V96.677h-4.739v28.434h-4.739V96.677h-4.739v28.434H196.1V96.677h-4.739v28.434h-4.739V96.677h-4.739v28.434h-4.739V96.677H172.4v28.434h-4.739V96.677h-4.739V129.85h90.041Z" transform="translate(0 0)" fill="#0061ae"/>
    <path id="Path_48" data-name="Path 48" d="M242.658,157.472a21.353,21.353,0,0,0,1.576-28.387l-29.962,29.962A21.355,21.355,0,0,0,242.658,157.472Z" transform="translate(51.455 32.478)" fill="#0061ae"/>
    <path id="Path_49" data-name="Path 49" d="M236.325,153.484H215v23.694h21.325a11.847,11.847,0,1,0,0-23.694Z" transform="translate(52.186 56.93)" fill="#0061ae"/>
    <path id="Path_50" data-name="Path 50" d="M162.927,159.4v11.847h66.608a16.526,16.526,0,0,1-5-11.847Z" transform="translate(0 62.86)" fill="#0061ae"/>
    <path id="Path_51" data-name="Path 51" d="M196.064,165.331a11.861,11.861,0,0,0,11.847,11.847h21.327V153.484H207.911A11.861,11.861,0,0,0,196.064,165.331Z" transform="translate(33.209 56.93)" fill="#0061ae"/>
    <g id="Group_37" data-name="Group 37" transform="translate(186.623 165.393)">
      <path id="Path_52" data-name="Path 52" d="M193.712,135.732h-4.739v9.478H179.5v4.739h9.478v9.478h4.739v-9.478h9.478V145.21h-9.478Z" transform="translate(-170.018 -126.254)" fill="#0061ae"/>
      <path id="Path_53" data-name="Path 53" d="M196.087,131a21.325,21.325,0,1,0,21.325,21.325A21.348,21.348,0,0,0,196.087,131Zm7.108,28.433v9.478H188.977v-9.478H179.5V145.213h9.478v-9.476h14.217v9.476h9.478v14.217Z" transform="translate(-174.762 -130.998)" fill="#0061ae"/>
    </g>
  </g>
</svg>
