<svg xmlns="http://www.w3.org/2000/svg" width="274.074" height="136.789" viewBox="0 0 274.074 136.789">
  <g id="Group_35" data-name="Group 35" transform="translate(-375.102 -102.127)">
    <path id="Path_32" data-name="Path 32" d="M469.676,142.255c-2.947.255-5.2.909-5.992,2.205l3.5-7.293c-4.748,4.605-10.441,7.293-16.566,7.293-6.271,0-12.09-2.818-16.9-7.622l4.739,10.569.283.632a3.346,3.346,0,0,0-.924-.9,8.229,8.229,0,0,0-2.064-1.011,35.158,35.158,0,0,0-8.061-1.452,11.383,11.383,0,0,0,2.095,2.709c2.623,2.549,6.743,4.57,11.712,5.7l9.121,14.817,9.117-14.817a.935.935,0,0,1,.1-.026q1.048-.24,2.047-.539c.147-.045.3-.084.441-.134.671-.2,1.318-.428,1.945-.669.117-.043.225-.089.34-.134.632-.251,1.251-.515,1.837-.8l.041-.019c.608-.3,1.184-.615,1.736-.944.076-.052.156-.1.227-.141.541-.331,1.058-.679,1.536-1.041.032-.028.063-.054.1-.08a14.033,14.033,0,0,0,2.5-2.435c.028-.037.058-.071.082-.108a10.712,10.712,0,0,0,.881-1.34,8.234,8.234,0,0,0,.892-2.538A43.169,43.169,0,0,0,469.676,142.255Z" transform="translate(61.218 40.405)" fill="none"/>
    <path id="Path_33" data-name="Path 33" d="M490.646,157.481c10.662,0,19.472-11.578,20.855-26.6a10.181,10.181,0,0,0-3.346,1.565s2.385-14.133-2.64-16.116a32.617,32.617,0,0,1-29.736,0c-5.025,1.982-2.642,16.12-2.642,16.12a10.121,10.121,0,0,0-3.343-1.567C471.176,145.9,479.981,157.481,490.646,157.481Z" transform="translate(110.223 16.533)" fill="none"/>
    <path id="Path_34" data-name="Path 34" d="M408.368,157.481c10.662,0,19.472-11.582,20.855-26.6a10.134,10.134,0,0,0-3.343,1.565s2.38-14.133-2.647-16.116a32.6,32.6,0,0,1-29.729,0c-5.027,1.982-2.642,16.12-2.642,16.12a10.1,10.1,0,0,0-3.348-1.569C388.9,145.9,397.7,157.481,408.368,157.481Z" transform="translate(14.447 16.533)" fill="none"/>
    <path id="Path_35" data-name="Path 35" d="M477,127.6l-8.914-1.134c4.891-2.822,2.3-9,1.1-11.067-.357-.612-.6-.967-.6-.967-.069.052-.141.1-.208.149-13.919,10.024-25.321,13.83-25.321,13.83-6.289,2.482-16.825,4.226-16.825,4.226,1.729,18.8,12.755,33.3,26.1,33.3,8.756,0,16.505-6.241,21.3-15.836a49.761,49.761,0,0,0,4.884-18.39,28.7,28.7,0,0,0,.292-3.807l-1.629-.3Z" transform="translate(59.513 14.319)" fill="none"/>
    <path id="Path_36" data-name="Path 36" d="M468.563,138.366c.019.229.041.454.058.68,1.519,17.2,11.584,30.48,23.767,30.48s22.246-13.283,23.767-30.48c.02-.225.039-.45.056-.68.11-.747.184-1.5.225-2.266.03-.524.052-1.05.052-1.584a26.573,26.573,0,0,0-.277-3.848c-1.757-12.186-11.755-21.519-23.819-21.519s-22.06,9.331-23.824,21.519a26.843,26.843,0,0,0-.275,3.848c0,.535.022,1.06.05,1.584C468.388,136.868,468.457,137.619,468.563,138.366Zm8.959-13.677a32.617,32.617,0,0,0,29.736,0c5.025,1.982,2.64,16.116,2.64,16.116a10.181,10.181,0,0,1,3.346-1.565c-1.383,15.023-10.193,26.6-20.855,26.6s-19.47-11.578-20.853-26.6a10.154,10.154,0,0,1,3.343,1.565S472.5,126.671,477.522,124.689Z" transform="translate(108.479 8.174)" fill="#0061ae"/>
    <path id="Path_37" data-name="Path 37" d="M522.563,135.7c-.054-.009-.113-.013-.167-.022-.446-.061-.889-.113-1.342-.156a1.307,1.307,0,0,1-.015.139c0,.134-.03.262-.046.4a6.525,6.525,0,0,1-.651,2.168c-2.344,5.9-9.924,17.076-14.391,23.421l-.92-13.183a7.716,7.716,0,0,0,3.142-3.058,6.1,6.1,0,0,0,.831-2.96,19.091,19.091,0,0,1-6.73,1.474c-.193,0-.387-.007-.578-.015-.193.009-.387.015-.582.015a19.091,19.091,0,0,1-6.73-1.474,6.126,6.126,0,0,0,.831,2.96,7.716,7.716,0,0,0,3.142,3.058l-.92,13.183c-4.464-6.345-12.043-17.524-14.384-23.421a6.435,6.435,0,0,1-.658-2.168c-.015-.134-.037-.262-.045-.4,0-.043-.013-.089-.017-.139-.45.043-.9.1-1.335.156-.058.009-.113.013-.169.022A31.83,31.83,0,0,0,460.3,147.5a44.113,44.113,0,0,1,16.643,34.365c0,1.021-.05,1.974-.119,2.906,2.694.076,5.525.078,8.451.078h32.843c17.617,0,31.9.043,31.9-17.57A31.889,31.889,0,0,0,522.563,135.7Z" transform="translate(99.167 38.874)" fill="#0061ae"/>
    <path id="Path_38" data-name="Path 38" d="M463.676,147.59a31.44,31.44,0,0,0-21.746-11.785c-.128,5.743-8.637,10.374-19.117,10.374s-18.992-4.631-19.115-10.374a31.5,31.5,0,0,0-28.6,31.361c0,17.4,14.1,17.351,31.493,17.351h32.437c3,0,5.9,0,8.654-.089-.069-.926-.119-1.878-.119-2.893A44.159,44.159,0,0,1,463.676,147.59Z" transform="translate(0 39.202)" fill="#0061ae"/>
    <path id="Path_39" data-name="Path 39" d="M386.284,138.369c.019.229.037.454.058.68,1.519,17.2,11.582,30.48,23.77,30.48s22.244-13.283,23.768-30.48c.022-.225.039-.45.058-.68.108-.747.18-1.5.225-2.268.03-.524.052-1.052.052-1.584a27.186,27.186,0,0,0-.275-3.85c-1.759-12.183-11.755-21.521-23.824-21.521s-22.062,9.333-23.822,21.521a26.537,26.537,0,0,0-.277,3.85c0,.532.019,1.056.052,1.584A22.426,22.426,0,0,0,386.284,138.369Zm8.959-13.677a32.6,32.6,0,0,0,29.729,0c5.027,1.982,2.647,16.116,2.647,16.116a10.194,10.194,0,0,1,3.343-1.565c-1.383,15.023-10.19,26.6-20.855,26.6s-19.472-11.582-20.855-26.6a10.1,10.1,0,0,1,3.348,1.569S390.216,126.675,395.243,124.692Z" transform="translate(12.706 8.17)" fill="#0061ae"/>
    <path id="Path_40" data-name="Path 40" d="M529.875,216.578c-.069-.667-.143-1.333-.247-1.987-.065-.422-.151-.827-.232-1.244-.106-.573-.219-1.145-.353-1.71-.1-.446-.223-.887-.344-1.331q-.211-.769-.448-1.526c-.149-.461-.307-.924-.47-1.381s-.34-.911-.519-1.361c-.193-.478-.394-.954-.6-1.424-.18-.4-.372-.788-.563-1.182-.247-.5-.493-1-.76-1.489-.171-.314-.353-.615-.532-.926-.316-.547-.634-1.088-.974-1.619-.087-.138-.184-.266-.273-.4a39.846,39.846,0,0,0-6.931-7.916l-.009-.007c-.658-.576-1.337-1.123-2.034-1.653-.048-.041-.093-.076-.143-.113-.688-.519-1.389-1.008-2.108-1.484-.056-.037-.112-.071-.171-.113-.727-.472-1.469-.926-2.229-1.346a1.265,1.265,0,0,0-.117-.063,39.2,39.2,0,0,0-7.256-3.153c6.765.755,12.7,1.926,12.7,1.926a16.483,16.483,0,0,1-4.023-3.162c-9.39-9.9-9.124-30.889-9.124-30.889,2.357-51.573-31.677-48.877-31.677-48.877l-.026.08-.024-.08s-34.036-2.694-31.677,48.877c0,0,.266,20.943-9.089,30.853a16.7,16.7,0,0,1-4.058,3.2s3.631-.247,8.489-.34a39.489,39.489,0,0,0-13.739,10.227l-.022.028c-.584.677-1.153,1.376-1.692,2.095-.03.039-.058.078-.087.121-.513.69-1.011,1.4-1.48,2.114-.054.084-.106.18-.158.264-.437.686-.859,1.374-1.255,2.088-.076.141-.145.288-.221.431-.359.667-.71,1.34-1.03,2.028-.1.2-.177.418-.268.621-.284.641-.565,1.279-.816,1.937-.1.277-.193.56-.292.837-.21.6-.429,1.2-.615,1.811-.106.357-.193.723-.286,1.08-.149.55-.31,1.1-.437,1.66-.1.444-.171.9-.253,1.355-.091.487-.195.965-.271,1.461-.084.573-.134,1.16-.195,1.742-.039.383-.1.762-.128,1.145q-.11,1.467-.11,2.958c0,.894.041,1.729.1,2.543.015.206.032.413.052.615.069.734.158,1.45.273,2.116.011.05.013.1.022.149.132.705.3,1.363.478,2,.05.162.1.316.147.472a15.333,15.333,0,0,0,.591,1.575c.026.063.052.134.078.2a14.038,14.038,0,0,0,.827,1.517c.071.119.151.234.232.351a11.88,11.88,0,0,0,.861,1.132c.054.065.106.134.16.195a10.985,10.985,0,0,0,1.143,1.1c.1.084.2.167.312.247a12.2,12.2,0,0,0,1.093.781c.084.058.171.117.255.171a14.829,14.829,0,0,0,1.426.749c.123.058.253.11.381.164.415.184.842.348,1.288.5.125.043.242.087.368.128.539.175,1.093.32,1.662.457.154.037.309.067.463.1.467.1.946.195,1.435.277.169.03.329.061.5.082.6.091,1.221.173,1.855.238.188.022.383.037.576.054.493.045,1,.082,1.5.117.225.011.446.026.671.039.647.037,1.3.061,1.982.076.247.007.5.009.755.015.48.006.965.013,1.458.015.279,0,.56,0,.844,0,.98,0,1.978-.013,3-.032.411-.007.822-.013,1.236-.022.651-.015,1.314-.03,1.98-.05,3.017-.074,6.17-.158,9.416-.158h40.593c3.242,0,6.393.082,9.411.158.675.019,1.346.035,2.008.05.409.009.811.015,1.214.022,1.017.019,2.019.032,3,.032.288,0,.567,0,.842,0,.493,0,.976-.009,1.458-.015.253-.007.509-.009.757-.015.673-.017,1.329-.043,1.974-.076.232-.013.457-.028.688-.043.5-.03,1-.067,1.482-.113.195-.017.4-.032.591-.054.628-.065,1.244-.143,1.839-.236.18-.026.351-.061.528-.087.478-.08.944-.171,1.4-.273.164-.037.327-.067.487-.106.567-.134,1.112-.284,1.645-.45.138-.045.268-.091.4-.141.426-.145.84-.309,1.244-.48.139-.061.279-.117.411-.18a15.432,15.432,0,0,0,1.4-.738c.1-.061.193-.126.286-.188.366-.234.721-.491,1.065-.76.108-.087.219-.173.325-.264a11.191,11.191,0,0,0,1.13-1.091c.065-.067.119-.145.18-.216a10.974,10.974,0,0,0,.842-1.108c.078-.119.164-.24.24-.366a13.669,13.669,0,0,0,.822-1.506c.032-.067.061-.147.089-.216a13.684,13.684,0,0,0,.578-1.554c.054-.158.1-.316.151-.48a19.77,19.77,0,0,0,.476-1.993c.013-.052.015-.106.024-.16.119-.664.2-1.374.275-2.106.022-.2.039-.411.054-.621.058-.809.1-1.645.1-2.538,0-1.047-.048-2.084-.128-3.11C529.964,217.279,529.908,216.929,529.875,216.578Zm-36.537-31.5a10.716,10.716,0,0,1-.881,1.34c-.026.037-.056.069-.082.106a14.19,14.19,0,0,1-2.5,2.437c-.035.026-.065.054-.1.078-.478.364-1,.708-1.536,1.043-.074.045-.151.087-.227.139-.554.327-1.127.647-1.736.946l-.041.017c-.586.286-1.205.552-1.839.8-.113.045-.221.091-.338.134q-.941.36-1.945.671c-.147.048-.3.089-.441.134-.667.195-1.346.377-2.047.539-.032.007-.063.015-.1.024l-9.117,14.819-9.121-14.819c-4.966-1.123-9.089-3.146-11.712-5.7a11.3,11.3,0,0,1-2.095-2.709,35,35,0,0,1,8.061,1.452,8.266,8.266,0,0,1,2.065,1.011,3.4,3.4,0,0,1,.922.9l-.284-.63-4.737-10.571c4.811,4.806,10.628,7.622,16.9,7.622,6.122,0,11.818-2.688,16.566-7.293l-3.5,7.293c.788-1.3,3.045-1.948,5.992-2.2a42.186,42.186,0,0,1,4.77-.123A8.5,8.5,0,0,1,493.338,185.079Zm3.244-39.056a49.677,49.677,0,0,1-4.886,18.39c-4.787,9.6-12.538,15.836-21.294,15.836-13.341,0-24.367-14.5-26.1-33.3,0,0,10.532-1.744,16.825-4.226,0,0,11.4-3.809,25.321-13.83.067-.05.136-.1.208-.149,0,0,.245.359.6.967,1.205,2.071,3.8,8.245-1.1,11.067l8.914,1.134h.162l1.63.3A28.676,28.676,0,0,1,496.582,146.022Z" transform="translate(41.437 0)" fill="#0061ae"/>
  </g>
</svg>
