<svg xmlns="http://www.w3.org/2000/svg" width="170.591" height="152.697" viewBox="0 0 170.591 152.697">
  <g id="Group_36" data-name="Group 36" transform="translate(-256.031 -80.262)">
    <path id="Path_41" data-name="Path 41" d="M335.374,109.5a8.089,8.089,0,0,1-7.456,5.368,7.771,7.771,0,0,1-7.754-8.053,4.9,4.9,0,0,1,.6-2.981,7.78,7.78,0,0,1-3.281-6.264,7.973,7.973,0,0,1,15.508-2.684,8,8,0,0,1,6.562,7.754A7.8,7.8,0,0,1,335.374,109.5Z" transform="translate(47.407 7.144)" fill="#0061ae"/>
    <path id="Path_42" data-name="Path 42" d="M332.3,100.244a8.407,8.407,0,0,0,7.454,5.368,8.018,8.018,0,0,0,8.053-8.051,8.793,8.793,0,0,0-.6-2.983,8.391,8.391,0,0,0,2.983-6.262,7.962,7.962,0,0,0-7.754-8.053,8.073,8.073,0,0,0-7.756,5.369,7.738,7.738,0,0,0-6.262,7.754A7.544,7.544,0,0,0,332.3,100.244Z" transform="translate(55.85)" fill="#0061ae"/>
    <path id="Path_43" data-name="Path 43" d="M406.342,191.263l-9.842-84.4h-15.21l-5.07,41.754L346.4,138.476v11.63l-37.579-12.824v11.035l-32.507-11.035v53.981h-20.28v21.175H426.622V191.263Zm-106.47-8.946a1.408,1.408,0,0,1-1.492,1.49h-5.368a1.408,1.408,0,0,1-1.492-1.49v-18.79a1.408,1.408,0,0,1,1.492-1.49h5.368a1.408,1.408,0,0,1,1.492,1.49Zm22.069,0a1.6,1.6,0,0,1-1.492,1.49h-5.368a1.669,1.669,0,0,1-1.789-1.49v-18.79a1.669,1.669,0,0,1,1.789-1.49h5.368a1.6,1.6,0,0,1,1.492,1.49Zm21.772,0a1.408,1.408,0,0,1-1.492,1.49h-5.368a1.408,1.408,0,0,1-1.492-1.49v-18.79a1.408,1.408,0,0,1,1.492-1.49h5.368a1.408,1.408,0,0,1,1.492,1.49Zm21.772,0a1.408,1.408,0,0,1-1.492,1.49h-5.368a1.407,1.407,0,0,1-1.492-1.49v-18.79a1.407,1.407,0,0,1,1.492-1.49h5.368a1.408,1.408,0,0,1,1.492,1.49Z" transform="translate(0 20.522)" fill="#0061ae"/>
  </g>
</svg>
