<?xml version="1.0" encoding="utf-8"?>
<!-- Generator: Adobe Illustrator 17.0.0, SVG Export Plug-In . SVG Version: 6.00 Build 0)  -->
<!DOCTYPE svg PUBLIC "-//W3C//DTD SVG 1.1//EN" "http://www.w3.org/Graphics/SVG/1.1/DTD/svg11.dtd">
<svg version="1.1" id="Layer_1" xmlns="http://www.w3.org/2000/svg" xmlns:xlink="http://www.w3.org/1999/xlink" x="0px" y="0px"
	 width="226.666px" height="120.619px" viewBox="0 0 226.666 120.619" enable-background="new 0 0 226.666 120.619"
	 xml:space="preserve">
<g>
	<g>
		<g>
			<path d="M123.47,63.388h5.244l10.448,27.166h-5.374l-2.125-5.596h-11.085l-2.21,5.596h-5.374L123.47,63.388z M126.124,70.59
				l-3.645,9.326h7.268L126.124,70.59z"/>
			<path d="M140.483,63.388h15.014v5.097h-4.949v22.068h-5.246V68.485h-4.819V63.388z"/>
			<path d="M184.011,68.162l-3.616,3.448c-2.46-2.6-5.228-3.9-8.303-3.9c-2.596,0-4.782,0.887-6.56,2.662
				c-1.777,1.774-2.666,3.962-2.666,6.563c0,1.812,0.394,3.42,1.181,4.825c0.787,1.405,1.9,2.508,3.339,3.309
				c1.439,0.801,3.04,1.201,4.798,1.201c1.501,0,2.872-0.28,4.115-0.84c1.243-0.561,2.608-1.581,4.096-3.06l3.506,3.658
				c-2.007,1.958-3.903,3.316-5.688,4.074c-1.786,0.757-3.823,1.136-6.112,1.136c-4.224,0-7.68-1.339-10.37-4.017
				c-2.69-2.678-4.035-6.109-4.035-10.295c0-2.708,0.612-5.116,1.837-7.221c1.226-2.105,2.98-3.798,5.264-5.079
				c2.284-1.281,4.744-1.921,7.378-1.921c2.241,0,4.398,0.473,6.473,1.42C180.721,65.071,182.508,66.417,184.011,68.162z"/>
			<path d="M201.361,62.705c3.844,0,7.148,1.392,9.914,4.174c2.766,2.782,4.149,6.174,4.149,10.176
				c0,3.964-1.364,7.319-4.093,10.064c-2.729,2.746-6.041,4.119-9.933,4.119c-4.078,0-7.466-1.41-10.164-4.229
				c-2.698-2.819-4.046-6.167-4.046-10.046c0-2.598,0.628-4.986,1.884-7.166c1.257-2.179,2.985-3.906,5.183-5.18
				C196.455,63.342,198.823,62.705,201.361,62.705z M201.306,67.765c-2.515,0-4.628,0.875-6.341,2.623
				c-1.713,1.748-2.569,3.971-2.569,6.667c0,3.004,1.078,5.38,3.235,7.128c1.676,1.366,3.6,2.05,5.768,2.05
				c2.453,0,4.542-0.887,6.267-2.659c1.726-1.773,2.587-3.958,2.587-6.556c0-2.585-0.869-4.774-2.606-6.565
				C205.909,68.661,203.794,67.765,201.306,67.765z"/>
		</g>
		<g>
			<g>
				<path fill="#0064A7" d="M145.001,95.935h2.297c1.317,0,2.206,0.058,2.665,0.172c0.659,0.162,1.197,0.495,1.616,1
					c0.417,0.504,0.627,1.138,0.627,1.901c0,0.769-0.204,1.402-0.612,1.901c-0.408,0.499-0.97,0.835-1.685,1.007
					c-0.523,0.125-1.501,0.188-2.933,0.188h-0.822v5.362h-1.153V95.935z M146.154,97.064v3.911l1.951,0.024
					c0.789,0,1.367-0.072,1.732-0.216c0.366-0.143,0.653-0.375,0.862-0.696c0.209-0.32,0.314-0.679,0.314-1.076
					c0-0.386-0.105-0.739-0.314-1.06c-0.209-0.32-0.484-0.549-0.827-0.684c-0.342-0.136-0.903-0.203-1.682-0.203H146.154z"/>
				<path fill="#0064A7" d="M154.495,95.935h1.152v4.837h5.872v-4.837h1.152v11.531h-1.152v-5.565h-5.872v5.565h-1.152V95.935z"/>
				<path fill="#0064A7" d="M170.188,95.935l5.379,11.531h-1.245l-1.814-3.794h-4.967l-1.796,3.794h-1.286l5.449-11.531H170.188z
					 M170.044,98.385l-1.977,4.174h3.943L170.044,98.385z"/>
				<path fill="#0064A7" d="M177.417,95.935h2.297c1.28,0,2.147,0.052,2.602,0.157c0.685,0.157,1.242,0.493,1.669,1.009
					c0.429,0.515,0.644,1.15,0.644,1.903c0,0.628-0.148,1.18-0.443,1.656c-0.295,0.477-0.717,0.836-1.266,1.079
					c-0.548,0.243-1.306,0.367-2.273,0.373l4.147,5.354h-1.425l-4.148-5.354h-0.651v5.354h-1.152V95.935z M178.569,97.064v3.919
					l1.987,0.016c0.77,0,1.339-0.073,1.708-0.22c0.369-0.146,0.657-0.38,0.864-0.702c0.207-0.321,0.31-0.681,0.31-1.078
					c0-0.387-0.105-0.738-0.314-1.054c-0.209-0.316-0.485-0.542-0.825-0.678c-0.34-0.136-0.906-0.204-1.696-0.204H178.569z"/>
				<path fill="#0064A7" d="M186.573,107.466l1.651-11.531h0.188l4.688,9.462l4.643-9.462h0.185l1.66,11.531h-1.13l-1.14-8.247
					l-4.077,8.247h-0.294l-4.127-8.31l-1.132,8.31H186.573z"/>
				<path fill="#0064A7" d="M206.564,95.935l5.378,11.531h-1.245l-1.814-3.794h-4.967l-1.796,3.794h-1.286l5.449-11.531H206.564z
					 M206.419,98.385l-1.977,4.174h3.943L206.419,98.385z"/>
			</g>
		</g>
		<path fill="#E73137" d="M14.992,107.846h20.667c0,0,49.865-52.683,126.274-56.285C161.933,51.561,65.236,46.632,14.992,107.846z"
			/>
		<polygon fill="#0064A7" points="97.373,70.521 81.068,78.864 99.175,107.852 120.411,107.852 		"/>
		<path fill="#0064A7" d="M67.511,22.173l-9.753,15.804c0.001,0,0.001,0,0.002,0c7.285,0,13.191,5.906,13.191,13.191
			c0,7.285-5.906,13.191-13.191,13.191c-5.159,0-9.623-2.963-11.792-7.279L23.809,92.989c23.131-24.269,65.886-35.55,65.886-35.55
			L67.511,22.173z"/>
	</g>
	<g>
		<g>
			<circle fill="#878787" cx="22.803" cy="18.388" r="7.103"/>
			
				<radialGradient id="SVGID_1_" cx="16.1619" cy="17.3593" r="9.9095" fx="14.6669" fy="14.8836" gradientTransform="matrix(1 0 0 1 5.9061 0)" gradientUnits="userSpaceOnUse">
				<stop  offset="0" style="stop-color:#FFFFFF"/>
				<stop  offset="0.1152" style="stop-color:#FFFFFF"/>
				<stop  offset="0.4606" style="stop-color:#C6C6C6"/>
				<stop  offset="1" style="stop-color:#C6C6C6;stop-opacity:0"/>
			</radialGradient>
			<circle fill="url(#SVGID_1_)" cx="22.803" cy="18.388" r="7.103"/>
		</g>
		<g>
			<circle fill="#878787" cx="53.072" cy="21.172" r="4.255"/>
			
				<radialGradient id="SVGID_2_" cx="46.7263" cy="20.5556" r="5.9362" fx="45.8307" fy="19.0726" gradientTransform="matrix(1 0 0 1 5.9061 0)" gradientUnits="userSpaceOnUse">
				<stop  offset="0" style="stop-color:#FFFFFF"/>
				<stop  offset="0.1152" style="stop-color:#FFFFFF"/>
				<stop  offset="0.4606" style="stop-color:#C6C6C6"/>
				<stop  offset="1" style="stop-color:#C6C6C6;stop-opacity:0"/>
			</radialGradient>
			<circle fill="url(#SVGID_2_)" cx="53.072" cy="21.172" r="4.255"/>
		</g>
		
			<linearGradient id="SVGID_3_" gradientUnits="userSpaceOnUse" x1="21.5559" y1="25.6049" x2="24.3104" y2="22.4307" gradientTransform="matrix(1 0 0 1 5.9061 0)">
			<stop  offset="0" style="stop-color:#DADADA"/>
			<stop  offset="0.303" style="stop-color:#FFFFFF"/>
			<stop  offset="0.703" style="stop-color:#C6C6C6"/>
			<stop  offset="1" style="stop-color:#E3E3E3"/>
		</linearGradient>
		<path fill="url(#SVGID_3_)" d="M33.605,25.043l-6.172-4.269c0,0-1.14-0.567-1.898,0.539c-0.759,1.108,0.509,2.275,0.509,2.275
			l4.555,4.937L33.605,25.043z"/>
		
			<linearGradient id="SVGID_4_" gradientUnits="userSpaceOnUse" x1="41.4762" y1="22.9654" x2="43.1212" y2="25.265" gradientTransform="matrix(1 0 0 1 5.9061 0)">
			<stop  offset="0" style="stop-color:#EDEDED"/>
			<stop  offset="0.2" style="stop-color:#C6C6C6"/>
			<stop  offset="0.3273" style="stop-color:#B2B2B2"/>
			<stop  offset="0.4303" style="stop-color:#C6C6C6"/>
			<stop  offset="0.7273" style="stop-color:#F6F6F6"/>
			<stop  offset="1" style="stop-color:#C6C6C6"/>
		</linearGradient>
		<path fill="url(#SVGID_4_)" d="M44.168,25.664l5.626-3.657c0,0,1.257-0.875,1.755-0.376c0.499,0.493,0.318,1.079-0.546,1.936
			c-0.854,0.856-4.958,4.21-4.958,4.21L44.168,25.664z"/>
		<g>
			
				<radialGradient id="SVGID_5_" cx="32.0441" cy="31.34" r="13.1031" fx="30.0673" fy="28.0665" gradientTransform="matrix(1 0 0 1 5.9061 0)" gradientUnits="userSpaceOnUse">
				<stop  offset="0" style="stop-color:#FFFFFF"/>
				<stop  offset="0.5515" style="stop-color:#0064A7"/>
				<stop  offset="1" style="stop-color:#0064A7"/>
			</radialGradient>
			<path fill="url(#SVGID_5_)" d="M48.31,32.708c0,5.181-4.205,9.383-9.397,9.383c-5.181,0-9.38-4.202-9.38-9.383
				c0-5.189,4.2-9.4,9.38-9.4C44.105,23.309,48.31,27.52,48.31,32.708z"/>
			
				<radialGradient id="SVGID_6_" cx="32.0441" cy="31.34" r="13.1031" fx="30.0673" fy="28.0665" gradientTransform="matrix(1 0 0 1 5.9061 0)" gradientUnits="userSpaceOnUse">
				<stop  offset="0" style="stop-color:#000000;stop-opacity:0"/>
				<stop  offset="0.5576" style="stop-color:#000000;stop-opacity:0.1"/>
				<stop  offset="1" style="stop-color:#000000;stop-opacity:0.7"/>
			</radialGradient>
			<path fill="url(#SVGID_6_)" d="M48.31,32.708c0,5.181-4.205,9.383-9.397,9.383c-5.181,0-9.38-4.202-9.38-9.383
				c0-5.189,4.2-9.4,9.38-9.4C44.105,23.309,48.31,27.52,48.31,32.708z"/>
		</g>
		<g>
			
				<linearGradient id="SVGID_7_" gradientUnits="userSpaceOnUse" x1="16.778" y1="144.8916" x2="20.3505" y2="140.7234" gradientTransform="matrix(0.9935 0.1138 -0.1138 0.9935 44.1772 -103.0742)">
				<stop  offset="0" style="stop-color:#DADADA"/>
				<stop  offset="0.3212" style="stop-color:#FFFFFF"/>
				<stop  offset="0.6121" style="stop-color:#D2D2D1"/>
				<stop  offset="0.7697" style="stop-color:#C6C6C6"/>
				<stop  offset="1" style="stop-color:#E3E3E3"/>
			</linearGradient>
			<path fill="url(#SVGID_7_)" d="M52.356,42.991l-7.37-6.457c0,0-1.39-0.904-2.541,0.417c-1.15,1.323,0.313,3.031,0.313,3.031
				l5.176,7.077L52.356,42.991z"/>
		</g>
		<g>
			<path fill="#878787" d="M68.679,50.958c0,6.138-4.979,11.112-11.115,11.112c-6.141,0-11.115-4.975-11.115-11.112
				c0-6.133,4.974-11.112,11.115-11.112C63.7,39.846,68.679,44.826,68.679,50.958z"/>
			
				<radialGradient id="SVGID_8_" cx="50.5078" cy="49.3491" r="15.508" fx="48.1682" fy="45.4747" gradientTransform="matrix(1 0 0 1 5.9061 0)" gradientUnits="userSpaceOnUse">
				<stop  offset="0" style="stop-color:#FFFFFF"/>
				<stop  offset="0.1152" style="stop-color:#FFFFFF"/>
				<stop  offset="0.4606" style="stop-color:#C6C6C6"/>
				<stop  offset="1" style="stop-color:#C6C6C6;stop-opacity:0"/>
			</radialGradient>
			<path fill="url(#SVGID_8_)" d="M68.679,50.958c0,6.138-4.979,11.112-11.115,11.112c-6.141,0-11.115-4.975-11.115-11.112
				c0-6.133,4.974-11.112,11.115-11.112C63.7,39.846,68.679,44.826,68.679,50.958z"/>
		</g>
		<g>
			
				<linearGradient id="SVGID_9_" gradientUnits="userSpaceOnUse" x1="37.0233" y1="49.8389" x2="39.5052" y2="56.0394" gradientTransform="matrix(1 0 0 1 5.9061 0)">
				<stop  offset="0.3212" style="stop-color:#F6F6F6"/>
				<stop  offset="0.5333" style="stop-color:#C6C6C6"/>
				<stop  offset="0.7697" style="stop-color:#A8A8A7"/>
				<stop  offset="1" style="stop-color:#E3E3E3"/>
			</linearGradient>
			<path fill="url(#SVGID_9_)" d="M35.409,51.653l13.257-2.97c0,0,2.148-0.539,3.034,1.039c0.891,1.586,0,2.752-1.198,3.516
				C49.296,54,38.192,60.106,38.192,60.106L35.409,51.653z"/>
			
				<linearGradient id="SVGID_10_" gradientUnits="userSpaceOnUse" x1="37.4658" y1="49.7902" x2="37.8587" y2="51.2908" gradientTransform="matrix(1 0 0 1 5.9061 0)">
				<stop  offset="0.097" style="stop-color:#C6C6C6"/>
				<stop  offset="0.9879" style="stop-color:#C6C6C6;stop-opacity:0"/>
			</linearGradient>
			<path fill="url(#SVGID_10_)" d="M35.409,51.653l13.257-2.97c0,0,2.148-0.539,3.034,1.039c0.891,1.586,0,2.752-1.198,3.516
				C49.296,54,38.192,60.106,38.192,60.106L35.409,51.653z"/>
		</g>
		<g>
			<path fill="#878787" d="M38.728,59.281c0,7.615-6.178,13.786-13.791,13.786c-7.619,0-13.79-6.171-13.79-13.786
				c0-7.609,6.171-13.787,13.79-13.787C32.549,45.494,38.728,51.672,38.728,59.281z"/>
			
				<radialGradient id="SVGID_11_" cx="17.6046" cy="57.2836" r="19.2403" fx="14.7019" fy="52.4768" gradientTransform="matrix(1 0 0 1 5.9061 0)" gradientUnits="userSpaceOnUse">
				<stop  offset="0" style="stop-color:#FFFFFF"/>
				<stop  offset="0.1152" style="stop-color:#FFFFFF"/>
				<stop  offset="0.4606" style="stop-color:#C6C6C6"/>
				<stop  offset="1" style="stop-color:#C6C6C6;stop-opacity:0"/>
			</radialGradient>
			<path fill="url(#SVGID_11_)" d="M38.728,59.281c0,7.615-6.178,13.786-13.791,13.786c-7.619,0-13.79-6.171-13.79-13.786
				c0-7.609,6.171-13.787,13.79-13.787C32.549,45.494,38.728,51.672,38.728,59.281z"/>
		</g>
	</g>
</g>
</svg>
