<svg xmlns="http://www.w3.org/2000/svg" width="74.155" height="53.126" viewBox="0 0 74.155 53.126">
  <path id="Path_31" data-name="Path 31" d="M72.162,24H28.193A15.137,15.137,0,0,0,13.1,39.093V62.033A15.137,15.137,0,0,0,28.193,77.126h43.97A15.137,15.137,0,0,0,87.255,62.033V39.093A15.137,15.137,0,0,0,72.162,24Zm-8.15,27.971L40.971,62.838c-.1,0-.2.1-.3.1a.6.6,0,0,1-.4-.1.717.717,0,0,1-.3-.6V38.891a.717.717,0,0,1,.3-.6.641.641,0,0,1,.6,0L63.911,50.663a.847.847,0,0,1,.4.7A.717.717,0,0,1,64.012,51.971Z" transform="translate(-13.1 -24)" fill="#ed9e19" opacity="0.9"/>
</svg>
